#!OML:ASF E:\Steps\Project 1\Capture day 1\Session 2\Subject.ASF
:FULLY-SPECIFIED
:DEGREES
114
root 16.434 17.9935 20.7628 -155.256 -3.97031 178.063
lowerback -28.4777 -2.15029 -6.77972
upperback -0.116711 -1.01642 -0.0529898
thorax 15.104 -1.12366 3.20104
lowerneck -5.31764 0.424086 0.548692
upperneck 12.5275 -0.307501 3.45992
head 4.63254 -0.0818723 0.945446
rclavicle 1.08835e-014 3.26007e-014
rhumerus -39.2419 -18.7729 -77.2413
rradius 33.3238
rwrist -2.94408
rhand -5.66943 -51.8661
rfingers 7.12502
rthumb 20.1501 -80.8411
lclavicle 1.08835e-014 3.26007e-014
lhumerus -30.3869 4.84337 80.8037
lradius 24.9654
lwrist -2.50012
lhand -21.5772 -12.4316
lfingers 7.12502
lthumb 4.817 17.4937
rfemur -22.1415 6.08826 21.1446
rtibia 9.0286
rfoot -21.7558 -5.56608
rtoes -12.8551
lfemur -23.2291 -9.44882 -21.0739
ltibia 10.5592
lfoot -7.59337 -5.66256
ltoes -12.4109
115
root 16.4373 17.9957 20.7662 -155.369 -4.01779 178.027
lowerback -28.3121 -2.09293 -6.77478
upperback -0.0659039 -0.939984 -0.0643122
thorax 15.0775 -1.08479 3.22057
lowerneck -5.24631 0.514481 0.520384
upperneck 12.688 -0.203743 3.48916
head 4.66802 -0.0345127 0.964849
rclavicle 3.97569e-016 -2.38542e-015
rhumerus -39.2782 -18.8375 -77.1484
rradius 33.3068
rwrist -2.89191
rhand -5.75396 -52.0611
rfingers 7.12502
rthumb 20.0689 -81.0446
lclavicle 3.97569e-016 -2.38542e-015
lhumerus -30.4128 5.14106 80.7961
lradius 24.9346
lwrist -2.94435
lhand -21.2345 -12.7828
lfingers 7.12502
lthumb 5.14793 17.1347
rfemur -22.2423 6.39545 21.0731
rtibia 9.46296
rfoot -21.9863 -5.9733
rtoes -12.7364
lfemur -23.1843 -9.45605 -21.1193
ltibia 10.7102
lfoot -7.62667 -5.73198
ltoes -12.8652
116
root 16.4449 17.9948 20.773 -155.382 -4.12235 178.035
lowerback -28.1977 -2.06539 -6.78336
upperback -0.044106 -0.905215 -0.0401167
thorax 15.0463 -1.06759 3.26841
lowerneck -5.1114 0.71682 0.3855
upperneck 12.6545 0.0778351 3.5588
head 4.62977 0.0995459 1.0235
rclavicle -2.98177e-015 9.93923e-016
rhumerus -39.2666 -18.8531 -77.1014
rradius 33.3004
rwrist -2.89176
rhand -5.91058 -52.3585
rfingers 7.12502
rthumb 19.9183 -81.3577
lclavicle -2.98177e-015 9.93923e-016
lhumerus -30.4275 5.23607 80.8427
lradius 24.9169
lwrist -3.09912
lhand -21.1198 -12.9954
lfingers 7.12502
lthumb 5.25872 16.9193
rfemur -22.3843 6.73878 21.0844
rtibia 9.74899
rfoot -22.1283 -6.24297
rtoes -11.4579
lfemur -23.2566 -9.49419 -21.0501
ltibia 10.8046
lfoot -7.61192 -5.79072
ltoes -12.3551
117
root 16.4559 17.992 20.7772 -155.418 -4.27646 178.068
lowerback -28.0834 -2.0603 -6.79928
upperback -0.0196909 -0.896867 -0.0191278
thorax 15.0209 -1.06267 3.30627
lowerneck -5.01187 0.837539 0.362219
upperneck 12.56 0.245051 3.60898
head 4.58092 0.18256 1.05117
rclavicle -1.08338e-014 2.5842e-015
rhumerus -39.2963 -19.0831 -76.9971
rradius 33.2476
rwrist -2.80052
rhand -5.8354 -51.8838
rfingers 7.12502
rthumb 19.9906 -80.8755
lclavicle -1.08338e-014 2.5842e-015
lhumerus -30.4307 4.90304 80.8924
lradius 24.9119
lwrist -2.77142
lhand -21.204 -13.0588
lfingers 7.12502
lthumb 5.17735 16.8579
rfemur -22.3923 6.85056 21.2114
rtibia 9.86235
rfoot -22.2061 -6.43995
rtoes -11.31
lfemur -23.3331 -9.66405 -20.8992
ltibia 10.9667
lfoot -7.6348 -5.73453
ltoes -11.4074
118
root 16.4616 17.9914 20.7762 -155.588 -4.37959 178.083
lowerback -27.9041 -2.05459 -6.75837
upperback 0.0560203 -0.896501 -0.0370383
thorax 15.0243 -1.05489 3.2693
lowerneck -4.98626 0.969421 0.338516
upperneck 12.4987 0.408055 3.7724
head 4.55445 0.269938 1.1137
rclavicle -9.44227e-016 -6.95746e-015
rhumerus -39.3252 -19.1718 -77.0127
rradius 33.2569
rwrist -2.80254
rhand -5.81858 -51.4739
rfingers 7.12502
rthumb 20.0067 -80.4639
lclavicle -9.44227e-016 -6.95746e-015
lhumerus -30.4516 4.75512 80.8388
lradius 24.9106
lwrist -2.63878
lhand -21.2308 -13.1657
lfingers 7.12502
lthumb 5.15155 16.7517
rfemur -22.2082 6.69007 21.3123
rtibia 9.88165
rfoot -22.2771 -6.33195
rtoes -11.1635
lfemur -23.2786 -9.88748 -20.8226
ltibia 11.194
lfoot -7.75011 -5.65685
ltoes -10.5367
119
root 16.4587 17.9923 20.7781 -155.548 -4.24788 178.055
lowerback -27.9286 -1.95438 -6.67659
upperback 0.0810892 -0.776866 -0.105571
thorax 15.0508 -0.994178 3.19609
lowerneck -4.92216 1.13753 0.26382
upperneck 12.5122 0.619238 3.92446
head 4.54275 0.376366 1.1836
rclavicle 3.27995e-015 -4.96962e-015
rhumerus -39.3452 -19.1498 -77.0969
rradius 33.3427
rwrist -2.8683
rhand -5.81992 -51.9138
rfingers 7.12502
rthumb 20.0055 -80.9039
lclavicle 3.27995e-015 -4.96962e-015
lhumerus -30.4491 4.82595 80.7884
lradius 24.838
lwrist -2.7964
lhand -21.3809 -13.0037
lfingers 7.12502
lthumb 5.00652 16.9171
rfemur -22.3595 6.43383 21.2566
rtibia 10.0118
rfoot -22.3352 -5.9518
rtoes -10.8142
lfemur -23.4193 -10.1451 -20.839
ltibia 11.4081
lfoot -7.85063 -5.36238
ltoes -10.1443
120
root 16.4679 17.9914 20.7768 -155.658 -4.47478 178.051
lowerback -27.7845 -1.96544 -6.70191
upperback 0.157447 -0.781293 -0.0720448
thorax 15.0737 -0.995648 3.24889
lowerneck -4.85334 1.25077 0.158359
upperneck 12.5289 0.768032 4.01991
head 4.53206 0.448274 1.23776
rclavicle 4.27387e-015 1.31198e-014
rhumerus -39.2838 -19.1793 -77.0891
rradius 33.3178
rwrist -2.83239
rhand -5.86507 -52.2399
rfingers 7.12502
rthumb 19.9621 -81.2345
lclavicle 4.27387e-015 1.31198e-014
lhumerus -30.4191 4.68467 80.8795
lradius 24.8232
lwrist -2.72953
lhand -21.491 -12.6971
lfingers 7.12502
lthumb 4.90025 17.2262
rfemur -22.1826 6.4699 21.351
rtibia 9.96278
rfoot -22.3638 -6.32151
rtoes -11.539
lfemur -23.4056 -10.3989 -20.7244
ltibia 11.6292
lfoot -7.8841 -5.33176
ltoes -9.71439
121
root 16.4757 17.9872 20.7812 -155.748 -4.64244 178.069
lowerback -27.6028 -1.92127 -6.65004
upperback 0.21144 -0.741308 -0.0555729
thorax 15.0467 -0.970007 3.25874
lowerneck -4.82575 1.25679 0.0943616
upperneck 12.5369 0.768491 4.11245
head 4.5289 0.449695 1.27659
rclavicle 1.09332e-014 -8.54774e-015
rhumerus -39.2177 -19.1447 -77.0539
rradius 33.1803
rwrist -2.76146
rhand -6.13806 -51.266
rfingers 7.12502
rthumb 19.6996 -80.2878
lclavicle 1.09332e-014 -8.54774e-015
lhumerus -30.3886 4.37582 81.0113
lradius 24.8962
lwrist -2.48713
lhand -21.0938 -12.6748
lfingers 7.12502
lthumb 5.28378 17.2393
rfemur -22.2038 6.31716 21.5035
rtibia 10.1971
rfoot -22.4572 -6.38272
rtoes -12.5415
lfemur -23.5034 -10.4615 -20.6539
ltibia 11.9108
lfoot -8.07783 -5.4152
ltoes -10.6668
122
root 16.4782 17.9847 20.7814 -155.919 -4.70315 178.067
lowerback -27.3991 -1.85727 -6.58919
upperback 0.281826 -0.67377 -0.0648722
thorax 15.0244 -0.930461 3.24637
lowerneck -4.77145 1.303 0.0790471
upperneck 12.6443 0.820473 4.11373
head 4.55135 0.471889 1.28236
rclavicle -1.37658e-014 -1.27222e-014
rhumerus -39.248 -19.1447 -76.9771
rradius 33.0714
rwrist -2.77632
rhand -6.33691 -50.1147
rfingers 7.12502
rthumb 19.5085 -79.156
lclavicle -1.37658e-014 -1.27222e-014
lhumerus -30.3511 4.21274 81.0799
lradius 24.8974
lwrist -2.27806
lhand -20.6504 -12.9815
lfingers 7.12502
lthumb 5.71187 16.9215
rfemur -22.1476 6.15034 21.559
rtibia 10.4817
rfoot -22.6352 -6.20667
rtoes -12.3903
lfemur -23.4286 -10.5431 -20.6621
ltibia 12.0502
lfoot -8.24964 -5.39233
ltoes -11.3685
123
root 16.4806 17.9815 20.7799 -155.936 -4.69892 177.98
lowerback -27.3688 -1.85806 -6.64915
upperback 0.317935 -0.649951 -0.0790468
thorax 15.0496 -0.923587 3.2736
lowerneck -4.58083 1.55601 -0.052166
upperneck 12.6178 1.16982 4.16195
head 4.50185 0.636573 1.33514
rclavicle 2.38542e-015 -2.34566e-014
rhumerus -39.2963 -18.9927 -77.0145
rradius 33.0541
rwrist -2.4281
rhand -6.32167 -50.5007
rfingers 7.12502
rthumb 19.5231 -79.5405
lclavicle 2.38542e-015 -2.34566e-014
lhumerus -30.3893 4.37664 81.0744
lradius 24.8658
lwrist -2.253
lhand -20.8349 -13.0769
lfingers 7.12502
lthumb 5.53379 16.8308
rfemur -22.2866 6.29451 21.4316
rtibia 10.8534
rfoot -22.8587 -6.31443
rtoes -11.6617
lfemur -23.476 -10.7431 -20.7248
ltibia 12.2519
lfoot -8.40206 -5.24695
ltoes -11.043
124
root 16.4858 17.9781 20.7809 -155.844 -4.73281 177.884
lowerback -27.4551 -1.84582 -6.72435
upperback 0.346051 -0.596501 -0.112584
thorax 15.1179 -0.906761 3.2971
lowerneck -4.5242 1.78825 -0.113585
upperneck 12.6048 1.49627 4.14503
head 4.48043 0.793721 1.35612
rclavicle 6.4605e-015 4.77083e-015
rhumerus -39.3168 -18.9303 -77.0529
rradius 33.0891
rwrist -2.57515
rhand -6.41622 -50.6538
rfingers 7.12502
rthumb 19.4322 -79.7028
lclavicle 6.4605e-015 4.77083e-015
lhumerus -30.4234 4.57165 81.0376
lradius 24.8682
lwrist -2.50809
lhand -21.1753 -12.9345
lfingers 7.12502
lthumb 5.20506 16.9815
rfemur -22.6417 6.60603 21.2947
rtibia 11.4003
rfoot -23.1424 -6.70053
rtoes -11.6891
lfemur -23.7431 -10.7766 -20.7888
ltibia 12.6282
lfoot -8.5888 -5.30849
ltoes -11.3153
125
root 16.4903 17.9762 20.7815 -155.853 -4.81756 177.843
lowerback -27.4477 -1.79501 -6.69501
upperback 0.417796 -0.52111 -0.16233
thorax 15.19 -0.869809 3.25674
lowerneck -4.87637 1.66909 0.436658
upperneck 12.9453 1.34995 3.48874
head 4.65844 0.717681 1.06226
rclavicle 5.01931e-015 2.127e-014
rhumerus -39.2673 -18.8855 -77.1456
rradius 33.1135
rwrist -2.91139
rhand -6.71407 -50.2482
rfingers 7.12502
rthumb 19.1458 -79.3259
lclavicle 5.01931e-015 2.127e-014
lhumerus -30.4298 4.46825 81.0302
lradius 24.9105
lwrist -2.59112
lhand -21.2188 -12.8386
lfingers 7.12502
lthumb 5.16309 17.0785
rfemur -22.7868 6.73129 21.2668
rtibia 11.7428
rfoot -23.3583 -6.93496
rtoes -12.0317
lfemur -23.8882 -10.7572 -20.8183
ltibia 12.9254
lfoot -8.65921 -5.41192
ltoes -11.5541
